# xmcd
#
# Track frame offsets:
#	150
#	25282
#	52025
#	72925
#	96112
#	118355
#	148737
#	169075
#	188137
#	209385
#
# Disc length: 3044 seconds
#
# Revision: 2
# Processed by: cddbd v1.5.2PL0 Copyright (c) Steve Scherf et al.
# Submitted via: EZCDAudioConverter 8.0.2.1
#
DISCID=980be20a
DTITLE=Chế Linh - Hát Cho Những Bà Mẹ Việt Nam
DYEAR=1991
DGENRE=Miscellaneous
TTITLE0=Lòng mẹ 2
TTITLE1=Đêm không còn tiếng súng
TTITLE2=Mái tóc quê hương
TTITLE3=Gợi nhớ quê hương
TTITLE4=Cho anh được về với quê em
TTITLE5=Bông hồng cài áo
TTITLE6=Hai chuyến tàu đêm
TTITLE7=Hoa vẫn nở trên đường quê hương
TTITLE8=Chuyện ba người
TTITLE9=Nó
EXTD=
EXTT0=
EXTT1=
EXTT2=
EXTT3=
EXTT4=
EXTT5=
EXTT6=
EXTT7=
EXTT8=
EXTT9=
PLAYORDER=
